<svg class="rich-terminal" viewBox="0 0 1238 782.0" xmlns="http://www.w3.org/2000/svg">
    <!-- Generated with Rich https://www.textualize.io -->
    <style>

    @font-face {
        font-family: "Fira Code";
        src: local("FiraCode-Regular"),
                url("https://cdnjs.cloudflare.com/ajax/libs/firacode/6.2.0/woff2/FiraCode-Regular.woff2") format("woff2"),
                url("https://cdnjs.cloudflare.com/ajax/libs/firacode/6.2.0/woff/FiraCode-Regular.woff") format("woff");
        font-style: normal;
        font-weight: 400;
    }
    @font-face {
        font-family: "Fira Code";
        src: local("FiraCode-Bold"),
                url("https://cdnjs.cloudflare.com/ajax/libs/firacode/6.2.0/woff2/FiraCode-Bold.woff2") format("woff2"),
                url("https://cdnjs.cloudflare.com/ajax/libs/firacode/6.2.0/woff/FiraCode-Bold.woff") format("woff");
        font-style: bold;
        font-weight: 700;
    }

    .terminal-matrix {
        font-family: Fira Code, monospace;
        font-size: 20px;
        line-height: 24.4px;
        font-variant-east-asian: full-width;
    }

    .terminal-title {
        font-size: 18px;
        font-weight: bold;
        font-family: arial;
    }

    .terminal-r1 { fill: #c5c8c6 }
.terminal-r2 { fill: #ffffff }
.terminal-r3 { fill: #fee165 }
.terminal-r4 { fill: #bcbcbc;font-weight: bold }
.terminal-r5 { fill: #92908a }
.terminal-r6 { fill: #bcbcbc }
.terminal-r7 { fill: #878787 }
.terminal-r8 { fill: #8d7f42 }
.terminal-r9 { fill: #4e4e4e }
.terminal-r10 { fill: #277dff;font-weight: bold }
    </style>

    <defs>
    <clipPath id="terminal-clip-terminal">
      <rect x="0" y="0" width="1219.0" height="731.0" />
    </clipPath>
    <clipPath id="terminal-line-0">
    <rect x="0" y="1.5" width="1220" height="24.65"/>
            </clipPath>
<clipPath id="terminal-line-1">
    <rect x="0" y="25.9" width="1220" height="24.65"/>
            </clipPath>
<clipPath id="terminal-line-2">
    <rect x="0" y="50.3" width="1220" height="24.65"/>
            </clipPath>
<clipPath id="terminal-line-3">
    <rect x="0" y="74.7" width="1220" height="24.65"/>
            </clipPath>
<clipPath id="terminal-line-4">
    <rect x="0" y="99.1" width="1220" height="24.65"/>
            </clipPath>
<clipPath id="terminal-line-5">
    <rect x="0" y="123.5" width="1220" height="24.65"/>
            </clipPath>
<clipPath id="terminal-line-6">
    <rect x="0" y="147.9" width="1220" height="24.65"/>
            </clipPath>
<clipPath id="terminal-line-7">
    <rect x="0" y="172.3" width="1220" height="24.65"/>
            </clipPath>
<clipPath id="terminal-line-8">
    <rect x="0" y="196.7" width="1220" height="24.65"/>
            </clipPath>
<clipPath id="terminal-line-9">
    <rect x="0" y="221.1" width="1220" height="24.65"/>
            </clipPath>
<clipPath id="terminal-line-10">
    <rect x="0" y="245.5" width="1220" height="24.65"/>
            </clipPath>
<clipPath id="terminal-line-11">
    <rect x="0" y="269.9" width="1220" height="24.65"/>
            </clipPath>
<clipPath id="terminal-line-12">
    <rect x="0" y="294.3" width="1220" height="24.65"/>
            </clipPath>
<clipPath id="terminal-line-13">
    <rect x="0" y="318.7" width="1220" height="24.65"/>
            </clipPath>
<clipPath id="terminal-line-14">
    <rect x="0" y="343.1" width="1220" height="24.65"/>
            </clipPath>
<clipPath id="terminal-line-15">
    <rect x="0" y="367.5" width="1220" height="24.65"/>
            </clipPath>
<clipPath id="terminal-line-16">
    <rect x="0" y="391.9" width="1220" height="24.65"/>
            </clipPath>
<clipPath id="terminal-line-17">
    <rect x="0" y="416.3" width="1220" height="24.65"/>
            </clipPath>
<clipPath id="terminal-line-18">
    <rect x="0" y="440.7" width="1220" height="24.65"/>
            </clipPath>
<clipPath id="terminal-line-19">
    <rect x="0" y="465.1" width="1220" height="24.65"/>
            </clipPath>
<clipPath id="terminal-line-20">
    <rect x="0" y="489.5" width="1220" height="24.65"/>
            </clipPath>
<clipPath id="terminal-line-21">
    <rect x="0" y="513.9" width="1220" height="24.65"/>
            </clipPath>
<clipPath id="terminal-line-22">
    <rect x="0" y="538.3" width="1220" height="24.65"/>
            </clipPath>
<clipPath id="terminal-line-23">
    <rect x="0" y="562.7" width="1220" height="24.65"/>
            </clipPath>
<clipPath id="terminal-line-24">
    <rect x="0" y="587.1" width="1220" height="24.65"/>
            </clipPath>
<clipPath id="terminal-line-25">
    <rect x="0" y="611.5" width="1220" height="24.65"/>
            </clipPath>
<clipPath id="terminal-line-26">
    <rect x="0" y="635.9" width="1220" height="24.65"/>
            </clipPath>
<clipPath id="terminal-line-27">
    <rect x="0" y="660.3" width="1220" height="24.65"/>
            </clipPath>
<clipPath id="terminal-line-28">
    <rect x="0" y="684.7" width="1220" height="24.65"/>
            </clipPath>
    </defs>

    <rect fill="#292929" stroke="rgba(255,255,255,0.35)" stroke-width="1" x="1" y="1" width="1236" height="780" rx="8"/><text class="terminal-title" fill="#c5c8c6" text-anchor="middle" x="618" y="27">AutocompleteTestApp</text>
            <g transform="translate(26,22)">
            <circle cx="0" cy="0" r="7" fill="#ff5f57"/>
            <circle cx="22" cy="0" r="7" fill="#febc2e"/>
            <circle cx="44" cy="0" r="7" fill="#28c840"/>
            </g>
        
    <g transform="translate(9, 41)" clip-path="url(#terminal-clip-terminal)">
    <rect fill="#222222" x="0" y="1.5" width="1220" height="24.65" shape-rendering="crispEdges"/><rect fill="#222222" x="0" y="25.9" width="12.2" height="24.65" shape-rendering="crispEdges"/><rect fill="#222222" x="12.2" y="25.9" width="414.8" height="24.65" shape-rendering="crispEdges"/><rect fill="#222222" x="427" y="25.9" width="793" height="24.65" shape-rendering="crispEdges"/><rect fill="#222222" x="0" y="50.3" width="12.2" height="24.65" shape-rendering="crispEdges"/><rect fill="#222222" x="12.2" y="50.3" width="1195.6" height="24.65" shape-rendering="crispEdges"/><rect fill="#222222" x="1207.8" y="50.3" width="12.2" height="24.65" shape-rendering="crispEdges"/><rect fill="#222222" x="0" y="74.7" width="12.2" height="24.65" shape-rendering="crispEdges"/><rect fill="#222222" x="12.2" y="74.7" width="1195.6" height="24.65" shape-rendering="crispEdges"/><rect fill="#222222" x="1207.8" y="74.7" width="12.2" height="24.65" shape-rendering="crispEdges"/><rect fill="#222222" x="0" y="99.1" width="12.2" height="24.65" shape-rendering="crispEdges"/><rect fill="#222222" x="12.2" y="99.1" width="1195.6" height="24.65" shape-rendering="crispEdges"/><rect fill="#222222" x="1207.8" y="99.1" width="12.2" height="24.65" shape-rendering="crispEdges"/><rect fill="#222222" x="0" y="123.5" width="12.2" height="24.65" shape-rendering="crispEdges"/><rect fill="#222222" x="12.2" y="123.5" width="1195.6" height="24.65" shape-rendering="crispEdges"/><rect fill="#222222" x="1207.8" y="123.5" width="12.2" height="24.65" shape-rendering="crispEdges"/><rect fill="#222222" x="0" y="147.9" width="12.2" height="24.65" shape-rendering="crispEdges"/><rect fill="#222222" x="12.2" y="147.9" width="1195.6" height="24.65" shape-rendering="crispEdges"/><rect fill="#222222" x="1207.8" y="147.9" width="12.2" height="24.65" shape-rendering="crispEdges"/><rect fill="#222222" x="0" y="172.3" width="12.2" height="24.65" shape-rendering="crispEdges"/><rect fill="#222222" x="12.2" y="172.3" width="1195.6" height="24.65" shape-rendering="crispEdges"/><rect fill="#222222" x="1207.8" y="172.3" width="12.2" height="24.65" shape-rendering="crispEdges"/><rect fill="#222222" x="0" y="196.7" width="12.2" height="24.65" shape-rendering="crispEdges"/><rect fill="#222222" x="12.2" y="196.7" width="1195.6" height="24.65" shape-rendering="crispEdges"/><rect fill="#222222" x="1207.8" y="196.7" width="12.2" height="24.65" shape-rendering="crispEdges"/><rect fill="#222222" x="0" y="221.1" width="12.2" height="24.65" shape-rendering="crispEdges"/><rect fill="#222222" x="12.2" y="221.1" width="1195.6" height="24.65" shape-rendering="crispEdges"/><rect fill="#222222" x="1207.8" y="221.1" width="12.2" height="24.65" shape-rendering="crispEdges"/><rect fill="#222222" x="0" y="245.5" width="12.2" height="24.65" shape-rendering="crispEdges"/><rect fill="#222222" x="12.2" y="245.5" width="1195.6" height="24.65" shape-rendering="crispEdges"/><rect fill="#222222" x="1207.8" y="245.5" width="12.2" height="24.65" shape-rendering="crispEdges"/><rect fill="#222222" x="0" y="269.9" width="12.2" height="24.65" shape-rendering="crispEdges"/><rect fill="#222222" x="12.2" y="269.9" width="1195.6" height="24.65" shape-rendering="crispEdges"/><rect fill="#222222" x="1207.8" y="269.9" width="12.2" height="24.65" shape-rendering="crispEdges"/><rect fill="#222222" x="0" y="294.3" width="12.2" height="24.65" shape-rendering="crispEdges"/><rect fill="#222222" x="12.2" y="294.3" width="1195.6" height="24.65" shape-rendering="crispEdges"/><rect fill="#222222" x="1207.8" y="294.3" width="12.2" height="24.65" shape-rendering="crispEdges"/><rect fill="#222222" x="0" y="318.7" width="12.2" height="24.65" shape-rendering="crispEdges"/><rect fill="#222222" x="12.2" y="318.7" width="1195.6" height="24.65" shape-rendering="crispEdges"/><rect fill="#222222" x="1207.8" y="318.7" width="12.2" height="24.65" shape-rendering="crispEdges"/><rect fill="#222222" x="0" y="343.1" width="12.2" height="24.65" shape-rendering="crispEdges"/><rect fill="#222222" x="12.2" y="343.1" width="1195.6" height="24.65" shape-rendering="crispEdges"/><rect fill="#222222" x="1207.8" y="343.1" width="12.2" height="24.65" shape-rendering="crispEdges"/><rect fill="#222222" x="0" y="367.5" width="1220" height="24.65" shape-rendering="crispEdges"/><rect fill="#222222" x="0" y="391.9" width="1220" height="24.65" shape-rendering="crispEdges"/><rect fill="#222222" x="0" y="416.3" width="12.2" height="24.65" shape-rendering="crispEdges"/><rect fill="#222222" x="12.2" y="416.3" width="24.4" height="24.65" shape-rendering="crispEdges"/><rect fill="#423d2b" x="36.6" y="416.3" width="146.4" height="24.65" shape-rendering="crispEdges"/><rect fill="#423d2b" x="183" y="416.3" width="317.2" height="24.65" shape-rendering="crispEdges"/><rect fill="#423d2b" x="500.2" y="416.3" width="683.2" height="24.65" shape-rendering="crispEdges"/><rect fill="#222222" x="1183.4" y="416.3" width="24.4" height="24.65" shape-rendering="crispEdges"/><rect fill="#222222" x="1207.8" y="416.3" width="12.2" height="24.65" shape-rendering="crispEdges"/><rect fill="#222222" x="0" y="440.7" width="12.2" height="24.65" shape-rendering="crispEdges"/><rect fill="#222222" x="12.2" y="440.7" width="24.4" height="24.65" shape-rendering="crispEdges"/><rect fill="#222222" x="36.6" y="440.7" width="146.4" height="24.65" shape-rendering="crispEdges"/><rect fill="#222222" x="183" y="440.7" width="292.8" height="24.65" shape-rendering="crispEdges"/><rect fill="#222222" x="475.8" y="440.7" width="707.6" height="24.65" shape-rendering="crispEdges"/><rect fill="#222222" x="1183.4" y="440.7" width="24.4" height="24.65" shape-rendering="crispEdges"/><rect fill="#222222" x="1207.8" y="440.7" width="12.2" height="24.65" shape-rendering="crispEdges"/><rect fill="#222222" x="0" y="465.1" width="12.2" height="24.65" shape-rendering="crispEdges"/><rect fill="#222222" x="12.2" y="465.1" width="24.4" height="24.65" shape-rendering="crispEdges"/><rect fill="#222222" x="36.6" y="465.1" width="146.4" height="24.65" shape-rendering="crispEdges"/><rect fill="#222222" x="183" y="465.1" width="329.4" height="24.65" shape-rendering="crispEdges"/><rect fill="#222222" x="512.4" y="465.1" width="671" height="24.65" shape-rendering="crispEdges"/><rect fill="#222222" x="1183.4" y="465.1" width="24.4" height="24.65" shape-rendering="crispEdges"/><rect fill="#222222" x="1207.8" y="465.1" width="12.2" height="24.65" shape-rendering="crispEdges"/><rect fill="#222222" x="0" y="489.5" width="12.2" height="24.65" shape-rendering="crispEdges"/><rect fill="#222222" x="12.2" y="489.5" width="24.4" height="24.65" shape-rendering="crispEdges"/><rect fill="#222222" x="36.6" y="489.5" width="146.4" height="24.65" shape-rendering="crispEdges"/><rect fill="#222222" x="183" y="489.5" width="158.6" height="24.65" shape-rendering="crispEdges"/><rect fill="#222222" x="341.6" y="489.5" width="841.8" height="24.65" shape-rendering="crispEdges"/><rect fill="#222222" x="1183.4" y="489.5" width="24.4" height="24.65" shape-rendering="crispEdges"/><rect fill="#222222" x="1207.8" y="489.5" width="12.2" height="24.65" shape-rendering="crispEdges"/><rect fill="#222222" x="0" y="513.9" width="12.2" height="24.65" shape-rendering="crispEdges"/><rect fill="#222222" x="12.2" y="513.9" width="24.4" height="24.65" shape-rendering="crispEdges"/><rect fill="#222222" x="36.6" y="513.9" width="146.4" height="24.65" shape-rendering="crispEdges"/><rect fill="#222222" x="183" y="513.9" width="378.2" height="24.65" shape-rendering="crispEdges"/><rect fill="#222222" x="561.2" y="513.9" width="622.2" height="24.65" shape-rendering="crispEdges"/><rect fill="#222222" x="1183.4" y="513.9" width="24.4" height="24.65" shape-rendering="crispEdges"/><rect fill="#222222" x="1207.8" y="513.9" width="12.2" height="24.65" shape-rendering="crispEdges"/><rect fill="#222222" x="0" y="538.3" width="12.2" height="24.65" shape-rendering="crispEdges"/><rect fill="#222222" x="12.2" y="538.3" width="24.4" height="24.65" shape-rendering="crispEdges"/><rect fill="#222222" x="36.6" y="538.3" width="146.4" height="24.65" shape-rendering="crispEdges"/><rect fill="#222222" x="183" y="538.3" width="353.8" height="24.65" shape-rendering="crispEdges"/><rect fill="#222222" x="536.8" y="538.3" width="646.6" height="24.65" shape-rendering="crispEdges"/><rect fill="#222222" x="1183.4" y="538.3" width="24.4" height="24.65" shape-rendering="crispEdges"/><rect fill="#222222" x="1207.8" y="538.3" width="12.2" height="24.65" shape-rendering="crispEdges"/><rect fill="#222222" x="0" y="562.7" width="12.2" height="24.65" shape-rendering="crispEdges"/><rect fill="#222222" x="12.2" y="562.7" width="24.4" height="24.65" shape-rendering="crispEdges"/><rect fill="#222222" x="36.6" y="562.7" width="146.4" height="24.65" shape-rendering="crispEdges"/><rect fill="#222222" x="183" y="562.7" width="427" height="24.65" shape-rendering="crispEdges"/><rect fill="#222222" x="610" y="562.7" width="573.4" height="24.65" shape-rendering="crispEdges"/><rect fill="#222222" x="1183.4" y="562.7" width="24.4" height="24.65" shape-rendering="crispEdges"/><rect fill="#222222" x="1207.8" y="562.7" width="12.2" height="24.65" shape-rendering="crispEdges"/><rect fill="#222222" x="0" y="587.1" width="12.2" height="24.65" shape-rendering="crispEdges"/><rect fill="#222222" x="12.2" y="587.1" width="24.4" height="24.65" shape-rendering="crispEdges"/><rect fill="#222222" x="36.6" y="587.1" width="146.4" height="24.65" shape-rendering="crispEdges"/><rect fill="#222222" x="183" y="587.1" width="402.6" height="24.65" shape-rendering="crispEdges"/><rect fill="#222222" x="585.6" y="587.1" width="597.8" height="24.65" shape-rendering="crispEdges"/><rect fill="#222222" x="1183.4" y="587.1" width="24.4" height="24.65" shape-rendering="crispEdges"/><rect fill="#222222" x="1207.8" y="587.1" width="12.2" height="24.65" shape-rendering="crispEdges"/><rect fill="#222222" x="0" y="611.5" width="12.2" height="24.65" shape-rendering="crispEdges"/><rect fill="#222222" x="12.2" y="611.5" width="24.4" height="24.65" shape-rendering="crispEdges"/><rect fill="#222222" x="36.6" y="611.5" width="146.4" height="24.65" shape-rendering="crispEdges"/><rect fill="#222222" x="183" y="611.5" width="244" height="24.65" shape-rendering="crispEdges"/><rect fill="#222222" x="427" y="611.5" width="756.4" height="24.65" shape-rendering="crispEdges"/><rect fill="#222222" x="1183.4" y="611.5" width="24.4" height="24.65" shape-rendering="crispEdges"/><rect fill="#222222" x="1207.8" y="611.5" width="12.2" height="24.65" shape-rendering="crispEdges"/><rect fill="#222222" x="0" y="635.9" width="1220" height="24.65" shape-rendering="crispEdges"/><rect fill="#222222" x="0" y="660.3" width="12.2" height="24.65" shape-rendering="crispEdges"/><rect fill="#222222" x="12.2" y="660.3" width="12.2" height="24.65" shape-rendering="crispEdges"/><rect fill="#222222" x="24.4" y="660.3" width="1171.2" height="24.65" shape-rendering="crispEdges"/><rect fill="#222222" x="1195.6" y="660.3" width="12.2" height="24.65" shape-rendering="crispEdges"/><rect fill="#222222" x="1207.8" y="660.3" width="12.2" height="24.65" shape-rendering="crispEdges"/><rect fill="#222222" x="0" y="684.7" width="1220" height="24.65" shape-rendering="crispEdges"/><rect fill="#222222" x="0" y="709.1" width="1073.6" height="24.65" shape-rendering="crispEdges"/><rect fill="#222222" x="1073.6" y="709.1" width="12.2" height="24.65" shape-rendering="crispEdges"/><rect fill="#222222" x="1085.8" y="709.1" width="24.4" height="24.65" shape-rendering="crispEdges"/><rect fill="#222222" x="1110.2" y="709.1" width="97.6" height="24.65" shape-rendering="crispEdges"/><rect fill="#222222" x="1207.8" y="709.1" width="12.2" height="24.65" shape-rendering="crispEdges"/>
    <g class="terminal-matrix">
    <text class="terminal-r1" x="1220" y="20" textLength="12.2" clip-path="url(#terminal-line-0)">
</text><text class="terminal-r2" x="12.2" y="44.4" textLength="414.8" clip-path="url(#terminal-line-1)">Chat&#160;messages&#160;would&#160;appear&#160;here...</text><text class="terminal-r1" x="1220" y="44.4" textLength="12.2" clip-path="url(#terminal-line-1)">
</text><text class="terminal-r1" x="1220" y="68.8" textLength="12.2" clip-path="url(#terminal-line-2)">
</text><text class="terminal-r1" x="1220" y="93.2" textLength="12.2" clip-path="url(#terminal-line-3)">
</text><text class="terminal-r1" x="1220" y="117.6" textLength="12.2" clip-path="url(#terminal-line-4)">
</text><text class="terminal-r1" x="1220" y="142" textLength="12.2" clip-path="url(#terminal-line-5)">
</text><text class="terminal-r1" x="1220" y="166.4" textLength="12.2" clip-path="url(#terminal-line-6)">
</text><text class="terminal-r1" x="1220" y="190.8" textLength="12.2" clip-path="url(#terminal-line-7)">
</text><text class="terminal-r1" x="1220" y="215.2" textLength="12.2" clip-path="url(#terminal-line-8)">
</text><text class="terminal-r1" x="1220" y="239.6" textLength="12.2" clip-path="url(#terminal-line-9)">
</text><text class="terminal-r1" x="1220" y="264" textLength="12.2" clip-path="url(#terminal-line-10)">
</text><text class="terminal-r1" x="1220" y="288.4" textLength="12.2" clip-path="url(#terminal-line-11)">
</text><text class="terminal-r1" x="1220" y="312.8" textLength="12.2" clip-path="url(#terminal-line-12)">
</text><text class="terminal-r1" x="1220" y="337.2" textLength="12.2" clip-path="url(#terminal-line-13)">
</text><text class="terminal-r1" x="1220" y="361.6" textLength="12.2" clip-path="url(#terminal-line-14)">
</text><text class="terminal-r1" x="1220" y="386" textLength="12.2" clip-path="url(#terminal-line-15)">
</text><text class="terminal-r3" x="0" y="410.4" textLength="1220" clip-path="url(#terminal-line-16)">╭──────────────────────────────────────────────────────────────────────────────────────────────────╮</text><text class="terminal-r1" x="1220" y="410.4" textLength="12.2" clip-path="url(#terminal-line-16)">
</text><text class="terminal-r3" x="0" y="434.8" textLength="12.2" clip-path="url(#terminal-line-17)">│</text><text class="terminal-r4" x="36.6" y="434.8" textLength="146.4" clip-path="url(#terminal-line-17)">/help&#160;&#160;&#160;&#160;&#160;&#160;&#160;</text><text class="terminal-r5" x="183" y="434.8" textLength="317.2" clip-path="url(#terminal-line-17)">Display&#160;available&#160;commands</text><text class="terminal-r3" x="1207.8" y="434.8" textLength="12.2" clip-path="url(#terminal-line-17)">│</text><text class="terminal-r1" x="1220" y="434.8" textLength="12.2" clip-path="url(#terminal-line-17)">
</text><text class="terminal-r3" x="0" y="459.2" textLength="12.2" clip-path="url(#terminal-line-18)">│</text><text class="terminal-r4" x="36.6" y="459.2" textLength="146.4" clip-path="url(#terminal-line-18)">/new&#160;&#160;&#160;&#160;&#160;&#160;&#160;&#160;</text><text class="terminal-r7" x="183" y="459.2" textLength="292.8" clip-path="url(#terminal-line-18)">Start&#160;a&#160;new&#160;conversation</text><text class="terminal-r3" x="1207.8" y="459.2" textLength="12.2" clip-path="url(#terminal-line-18)">│</text><text class="terminal-r1" x="1220" y="459.2" textLength="12.2" clip-path="url(#terminal-line-18)">
</text><text class="terminal-r3" x="0" y="483.6" textLength="12.2" clip-path="url(#terminal-line-19)">│</text><text class="terminal-r4" x="36.6" y="483.6" textLength="146.4" clip-path="url(#terminal-line-19)">/history&#160;&#160;&#160;&#160;</text><text class="terminal-r7" x="183" y="483.6" textLength="329.4" clip-path="url(#terminal-line-19)">Toggle&#160;conversation&#160;history</text><text class="terminal-r3" x="1207.8" y="483.6" textLength="12.2" clip-path="url(#terminal-line-19)">│</text><text class="terminal-r1" x="1220" y="483.6" textLength="12.2" clip-path="url(#terminal-line-19)">
</text><text class="terminal-r3" x="0" y="508" textLength="12.2" clip-path="url(#terminal-line-20)">│</text><text class="terminal-r4" x="36.6" y="508" textLength="146.4" clip-path="url(#terminal-line-20)">/settings&#160;&#160;&#160;</text><text class="terminal-r7" x="183" y="508" textLength="158.6" clip-path="url(#terminal-line-20)">Open&#160;settings</text><text class="terminal-r3" x="1207.8" y="508" textLength="12.2" clip-path="url(#terminal-line-20)">│</text><text class="terminal-r1" x="1220" y="508" textLength="12.2" clip-path="url(#terminal-line-20)">
</text><text class="terminal-r3" x="0" y="532.4" textLength="12.2" clip-path="url(#terminal-line-21)">│</text><text class="terminal-r4" x="36.6" y="532.4" textLength="146.4" clip-path="url(#terminal-line-21)">/confirm&#160;&#160;&#160;&#160;</text><text class="terminal-r7" x="183" y="532.4" textLength="378.2" clip-path="url(#terminal-line-21)">Configure&#160;confirmation&#160;settings</text><text class="terminal-r3" x="1207.8" y="532.4" textLength="12.2" clip-path="url(#terminal-line-21)">│</text><text class="terminal-r1" x="1220" y="532.4" textLength="12.2" clip-path="url(#terminal-line-21)">
</text><text class="terminal-r3" x="0" y="556.8" textLength="12.2" clip-path="url(#terminal-line-22)">│</text><text class="terminal-r4" x="36.6" y="556.8" textLength="146.4" clip-path="url(#terminal-line-22)">/condense&#160;&#160;&#160;</text><text class="terminal-r7" x="183" y="556.8" textLength="353.8" clip-path="url(#terminal-line-22)">Condense&#160;conversation&#160;history</text><text class="terminal-r3" x="1207.8" y="556.8" textLength="12.2" clip-path="url(#terminal-line-22)">│</text><text class="terminal-r1" x="1220" y="556.8" textLength="12.2" clip-path="url(#terminal-line-22)">
</text><text class="terminal-r3" x="0" y="581.2" textLength="12.2" clip-path="url(#terminal-line-23)">│</text><text class="terminal-r4" x="36.6" y="581.2" textLength="146.4" clip-path="url(#terminal-line-23)">/skills&#160;&#160;&#160;&#160;&#160;</text><text class="terminal-r7" x="183" y="581.2" textLength="427" clip-path="url(#terminal-line-23)">View&#160;loaded&#160;skills,&#160;hooks,&#160;and&#160;MCPs</text><text class="terminal-r3" x="1207.8" y="581.2" textLength="12.2" clip-path="url(#terminal-line-23)">│</text><text class="terminal-r1" x="1220" y="581.2" textLength="12.2" clip-path="url(#terminal-line-23)">
</text><text class="terminal-r3" x="0" y="605.6" textLength="12.2" clip-path="url(#terminal-line-24)">│</text><text class="terminal-r4" x="36.6" y="605.6" textLength="146.4" clip-path="url(#terminal-line-24)">/feedback&#160;&#160;&#160;</text><text class="terminal-r7" x="183" y="605.6" textLength="402.6" clip-path="url(#terminal-line-24)">Send&#160;anonymous&#160;feedback&#160;about&#160;CLI</text><text class="terminal-r3" x="1207.8" y="605.6" textLength="12.2" clip-path="url(#terminal-line-24)">│</text><text class="terminal-r1" x="1220" y="605.6" textLength="12.2" clip-path="url(#terminal-line-24)">
</text><text class="terminal-r3" x="0" y="630" textLength="12.2" clip-path="url(#terminal-line-25)">│</text><text class="terminal-r4" x="36.6" y="630" textLength="146.4" clip-path="url(#terminal-line-25)">/exit&#160;&#160;&#160;&#160;&#160;&#160;&#160;</text><text class="terminal-r7" x="183" y="630" textLength="244" clip-path="url(#terminal-line-25)">Exit&#160;the&#160;application</text><text class="terminal-r3" x="1207.8" y="630" textLength="12.2" clip-path="url(#terminal-line-25)">│</text><text class="terminal-r1" x="1220" y="630" textLength="12.2" clip-path="url(#terminal-line-25)">
</text><text class="terminal-r8" x="0" y="654.4" textLength="1220" clip-path="url(#terminal-line-26)">╭──────────────────────────────────────────────────────────────────────────────────────────────────╮</text><text class="terminal-r1" x="1220" y="654.4" textLength="12.2" clip-path="url(#terminal-line-26)">
</text><text class="terminal-r8" x="0" y="678.8" textLength="12.2" clip-path="url(#terminal-line-27)">│</text><text class="terminal-r6" x="24.4" y="678.8" textLength="1171.2" clip-path="url(#terminal-line-27)">/&#160;&#160;&#160;&#160;&#160;&#160;&#160;&#160;&#160;&#160;&#160;&#160;&#160;&#160;&#160;&#160;&#160;&#160;&#160;&#160;&#160;&#160;&#160;&#160;&#160;&#160;&#160;&#160;&#160;&#160;&#160;&#160;&#160;&#160;&#160;&#160;&#160;&#160;&#160;&#160;&#160;&#160;&#160;&#160;&#160;&#160;&#160;&#160;&#160;&#160;&#160;&#160;&#160;&#160;&#160;&#160;&#160;&#160;&#160;&#160;&#160;&#160;&#160;&#160;&#160;&#160;&#160;&#160;&#160;&#160;&#160;&#160;&#160;&#160;&#160;&#160;&#160;&#160;&#160;&#160;&#160;&#160;&#160;&#160;&#160;&#160;&#160;&#160;&#160;&#160;&#160;&#160;&#160;&#160;&#160;</text><text class="terminal-r8" x="1207.8" y="678.8" textLength="12.2" clip-path="url(#terminal-line-27)">│</text><text class="terminal-r1" x="1220" y="678.8" textLength="12.2" clip-path="url(#terminal-line-27)">
</text><text class="terminal-r8" x="0" y="703.2" textLength="1220" clip-path="url(#terminal-line-28)">╰──────────────────────────────────────────────────────────────────────────────────────────────────╯</text><text class="terminal-r1" x="1220" y="703.2" textLength="12.2" clip-path="url(#terminal-line-28)">
</text><text class="terminal-r9" x="1073.6" y="727.6" textLength="12.2" clip-path="url(#terminal-line-29)">▏</text><text class="terminal-r10" x="1085.8" y="727.6" textLength="24.4" clip-path="url(#terminal-line-29)">^p</text><text class="terminal-r2" x="1110.2" y="727.6" textLength="97.6" clip-path="url(#terminal-line-29)">&#160;palette</text>
    </g>
    </g>
</svg>
